<svg xmlns="http://www.w3.org/2000/svg" width="64" height="64" viewBox="0 0 64 64" id="website-not-found"><g transform="translate(-384 -96)"><path fill="#3e4f59" fill-rule="evenodd" d="m 393.99999,105 h 49 v 6 h -49 z"></path><path fill="#acbec2" fill-rule="evenodd" d="m 393.99999,111 h 49 v 40 h -49 z"></path><path fill="#e8edee" fill-rule="evenodd" d="m 393.99999,111 v 40 h 29.76954 a 28.484051,41.392605 35.599482 0 0 18.625,-40 z"></path><path fill-rule="evenodd" d="m 395.99999,104 c -1.64501,0 -3,1.355 -3,3 v 40 c 0,0.55229 0.44772,1 1,1 0.55229,0 1,-0.44771 1,-1 v -40 c 0,-0.56413 0.43587,-1 1,-1 h 45 c 0.56414,0 1,0.43587 1,1 v 3 h -42 c -0.55228,0 -1,0.44772 -1,1 0,0.55229 0.44772,1 1,1 h 42 v 37 c 0,0.56413 -0.43586,1 -1,1 h -49 c -0.55228,0 -1,0.44772 -1,1 0,0.55229 0.44772,1 1,1 h 49 c 1.64501,0 3,-1.35499 3,-3 0,-14 0,-28 0,-42 0,-1.645 -1.35499,-3 -3,-3 z" color="#000"></path><path style="-inkscape-stroke:none" fill="#ed7161" fill-rule="evenodd" d="m 438.99999,107 c -0.55228,0 -1,0.44772 -1,1 0,0.55229 0.44772,1 1,1 0.55229,0 1,-0.44771 1,-1 0,-0.55228 -0.44771,-1 -1,-1 z" color="#000"></path><path style="-inkscape-stroke:none" fill="#ecba16" fill-rule="evenodd" d="m 434.99999,107 c -0.55228,0 -1,0.44772 -1,1 0,0.55229 0.44772,1 1,1 0.55229,0 1,-0.44771 1,-1 0,-0.55228 -0.44771,-1 -1,-1 z" color="#000"></path><path style="-inkscape-stroke:none" fill="#42b05c" fill-rule="evenodd" d="m 430.99999,107 c -0.55228,0 -1,0.44772 -1,1 0,0.55229 0.44772,1 1,1 0.55229,0 1,-0.44771 1,-1 0,-0.55228 -0.44771,-1 -1,-1 z" color="#000"></path><path style="-inkscape-stroke:none" fill-rule="evenodd" d="M388.99999 150a1 1 0 00-1 1 1 1 0 001 1 1 1 0 001-1 1 1 0 00-1-1zM396.99999 110c-.55228 0-1 .44772-1 1 0 .55229.44772 1 1 1 .55229 0 1-.44771 1-1 0-.55228-.44771-1-1-1z" color="#000"></path><rect width="29" height="22" x="404" y="120" fill="#0075d3" fill-rule="evenodd" rx="2" ry="2"></rect><path fill="#0588e2" fill-rule="evenodd" d="m 406,120 c -1.108,0 -2,0.892 -2,2 v 18 c 0,1.108 0.892,2 2,2 h 19.58398 A 19.317461,16.374676 0 0 0 430.2207,131.36719 19.317461,16.374676 0 0 0 424.80273,120 Z"></path><rect width="29" height="6" x="404" y="120" fill="#fe73c5" fill-rule="evenodd"></rect><path fill="#fe93d3" fill-rule="evenodd" d="m 404,120 v 6 h 24.58984 a 14,8.5 0 0 0 0.10938,-1 14,8.5 0 0 0 -2.67969,-5 z"></path><g transform="translate(0 -4)"><path style="-inkscape-stroke:none" fill="#918383" fill-rule="evenodd" d="m 404,130 h 29" color="#000"></path><path style="-inkscape-stroke:none" fill-rule="evenodd" d="m 406,123 c -1.6447,0 -3,1.3553 -3,3 0,1.97201 0,3.94401 0,5.91602 0,0.55228 0.44772,1 1,1 0.55228,0 1,-0.44772 1,-1 V 131 h 27 v 6 c 0,0.55228 0.44772,1 1,1 0.55228,0 1,-0.44772 1,-1 0,-3.66667 0,-7.33333 0,-11 0,-1.6447 -1.3553,-3 -3,-3 z m 0,2 h 25 c 0.5713,0 1,0.4287 1,1 v 3 h -27 v -3 c 0,-0.5713 0.4287,-1 1,-1 z m -2,10 c -0.55228,0 -1,0.44772 -1,1 v 8 c 0,1.6447 1.3553,3 3,3 h 25 c 1.6447,0 3,-1.3553 3,-3 v -3 c 0,-0.55228 -0.44772,-1 -1,-1 -0.55228,0 -1,0.44772 -1,1 v 3 c 0,0.5713 -0.4287,1 -1,1 h -25 c -0.5713,0 -1,-0.4287 -1,-1 v -8 c 0,-0.55228 -0.44772,-1 -1,-1 z" color="#000"></path></g><path style="-inkscape-stroke:none" fill-rule="evenodd" d="m 409.93555,129.00195 c -0.45187,0.0293 -0.82765,0.35863 -0.91602,0.80274 l -1,5 C 407.89645,135.42313 408.36944,135.99975 409,136 h 3 v 2 c 0,0.55228 0.44772,1 1,1 0.55228,0 1,-0.44772 1,-1 0,-1.66667 0,-3.33333 0,-5 0,-0.55228 -0.44772,-1 -1,-1 -0.55228,0 -1,0.44772 -1,1 v 1 h -1.78125 l 0.76172,-3.80469 c 0.10771,-0.54147 -0.24375,-1.06778 -0.78516,-1.17578 -0.0854,-0.0172 -0.17278,-0.0231 -0.25976,-0.0176 z" color="#000"></path><path fill="#ffc343" fill-rule="evenodd" d="m 418.99999,130 c 1.10801,0 2.00002,0.89201 2.00002,2.00002 v 2.99996 c 0,1.10801 -0.89201,2.00002 -2.00002,2.00002 -1.10801,0 -2.00002,-0.89201 -2.00002,-2.00002 v -2.99996 c 0,-1.10801 0.89201,-2.00002 2.00002,-2.00002 z"></path><path style="-inkscape-stroke:none" fill-rule="evenodd" d="M419 129c-1.64471 0-3 1.35529-3 3v3c0 1.64471 1.35529 3 3 3 1.64471 0 3-1.35529 3-3v-3a1 1 0 00-1-1 1 1 0 00-1 1v3c0 .57131-.42869 1-1 1-.57131 0-1-.42869-1-1v-3c0-.57131.42869-1 1-1a1 1 0 001-1 1 1 0 00-1-1zM425.93555 129.00195c-.45187.0293-.82765.35863-.91602.80274l-1 5C423.89645 135.42313 424.36944 135.99975 425 136h3v2c0 .55228.44772 1 1 1 .55228 0 1-.44772 1-1 0-1.66667 0-3.33333 0-5 0-.55228-.44772-1-1-1-.55228 0-1 .44772-1 1v1h-1.78125l.76172-3.80469c.10771-.54147-.24375-1.06778-.78516-1.17578-.0854-.0172-.17278-.0231-.25976-.0176z" color="#000"></path></g></svg>